<svg width="35" height="30" viewBox="0 0 35 30" fill="none" xmlns="http://www.w3.org/2000/svg">
<path d="M1.81553 19.5087C0.728155 17.7414 0.728155 17.7414 1.81553 16.8083L12.4669 7.66791C14.3204 6.07736 14.2116 6.07736 15.9515 6.07736H27.3689C29 6.07736 29 6.07736 29 7.66791V16.681C29 18.8018 29 18.8018 26.8252 19.8621L9.42718 27.508C7.25243 28.3451 7.25243 28.3451 6.37978 26.9268L1.81553 19.5087Z" stroke="#787676" stroke-width="2" stroke-linecap="round"/>
<circle cx="24" cy="11.0774" r="3" stroke="#787676" stroke-width="2"/>
<path d="M23 9.07743C23 13.0774 32 13.0774 33.5 9.07743C35 5.07748 32.5 2.07737 31.5 1.57737C30.5 1.07737 27.5 0.577333 25.5 1.57735C23.5 2.57737 23 4.19121 23 5.07741" stroke="#787676" stroke-width="2"/>
</svg>
