<svg width="26" height="23" viewBox="0 0 26 23" fill="none" xmlns="http://www.w3.org/2000/svg">
<path d="M3.1087 1C1 1 1.00003 1 1 3V14C1.00003 16.5 1 16.5 3.1087 16.5H12.5978H16L17 16.5118C18 16.5236 18.0085 16.5374 18.7058 17.6686L20.1428 20C21.6631 22.4664 21.6838 22.5 21.6838 20V17.6686C21.6838 16.5375 21.6912 16.5374 22.7781 16.5119L22.8188 16.511C23.087 16.5081 23.3865 16.5055 23.7566 16.5035C25.25 16.5 25.25 15.9647 25.25 13.7059V3C25.25 1 25.25 1.00003 23.1413 1H3.1087Z" stroke="#787676"/>
<line x1="4.53125" y1="4.73529" x2="21.7188" y2="4.73529" stroke="#787676" stroke-linecap="round"/>
<line x1="4.53125" y1="8.97058" x2="21.7188" y2="8.97058" stroke="#787676" stroke-linecap="round"/>
<line x1="4.53125" y1="13.2059" x2="21.7188" y2="13.2059" stroke="#787676" stroke-linecap="round"/>
</svg>
