<svg width="27" height="26" viewBox="0 0 27 26" fill="none" xmlns="http://www.w3.org/2000/svg">
<path d="M8.26014 24.982C6.82212 24.982 6.82214 24.982 6.82212 20.8712V5.87118M8.26014 24.982H14.7312H17.0513L21.7013 25C21.8843 24.9953 22.0885 24.991 22.3409 24.9877C26.5726 24.9923 25.9704 20.8712 25.9704 20.8712H10.3036C10.3036 23.5193 8.94131 24.7151 8.26014 24.982ZM23.3593 20.3875V5.87118C23.3593 2.4705 23.3422 1.00493 20.1179 1.00493H3.66863M6.82212 5.87118H1C1 2.6595 2.29824 1.10273 3.66863 1.00493M6.82212 5.87118C6.82212 2.60889 5.20031 0.895606 3.66863 1.00493" stroke="#787676"/>
<path d="M14.9996 7.71429V6M14.9996 7.71429C18.0852 7.71429 17.9998 9.85714 17.9998 9.85714M14.9996 7.71429C12 7.71429 12 9.85714 12 9.85714C11.9998 11.7498 13.0284 12 14.9996 12C16.9708 12 17.9998 12.1714 17.9998 14.5714C17.9998 16.7143 14.9996 16.7143 14.9996 16.7143M14.9996 16.7143C13.9997 16.7143 12 15.9429 12 14.5714M14.9996 16.7143L14.9999 18" stroke="#787676" stroke-linecap="round"/>
</svg>
