<svg width="29" height="28" viewBox="0 0 29 28" fill="none" xmlns="http://www.w3.org/2000/svg">
<path d="M8.26014 26.982C6.82212 26.982 6.82214 26.982 6.82212 22.8712V7.87118M8.26014 26.982H14.7312H17.0513L21.7013 27C21.8843 26.9953 22.0885 26.991 22.3409 26.9877C26.5726 26.9923 25.9704 22.8712 25.9704 22.8712H10.3036C10.3036 25.5193 8.94131 26.7151 8.26014 26.982ZM23.3593 22.3875V7.87118C23.3593 4.4705 23.3422 3.00493 20.1179 3.00493H3.66863M6.82212 7.87118H1C1 4.6595 2.29824 3.10273 3.66863 3.00493M6.82212 7.87118C6.82212 4.60889 5.20031 2.89561 3.66863 3.00493" stroke="#787676"/>
<path d="M14.9996 9.71429V8M14.9996 9.71429C18.0852 9.71429 17.9998 11.8571 17.9998 11.8571M14.9996 9.71429C12 9.71429 12 11.8571 12 11.8571C11.9998 13.7498 13.0284 14 14.9996 14C16.9708 14 17.9998 14.1714 17.9998 16.5714C17.9998 18.7143 14.9996 18.7143 14.9996 18.7143M14.9996 18.7143C13.9997 18.7143 12 17.9429 12 16.5714M14.9996 18.7143L14.9999 20" stroke="#787676" stroke-linecap="round"/>
<circle cx="21.5" cy="7.5" r="7" fill="white" stroke="#787676"/>
<path d="M17.7797 6.78538L17.8116 6.78522L20.8043 6.76972C21.0415 6.76849 21.0415 6.76654 21.0403 6.54383L21.0232 3.23117C21.0211 2.83385 21.0278 2.83382 21.4068 2.83185L21.9397 2.82909C22.2999 2.82723 22.304 2.82721 22.3063 3.27297L22.3226 6.42455C22.3244 6.75971 22.3244 6.76185 22.6448 6.76019L25.6207 6.74477C26.173 6.74191 26.173 6.74211 26.175 7.11829L26.178 7.7057C26.1798 8.05366 26.1798 8.05346 25.6541 8.05618L22.6352 8.07182L22.6218 8.07189C22.3312 8.07339 22.3312 8.07676 22.3326 8.34864L22.3496 11.6321C22.3515 12.008 22.358 12.008 21.9546 12.0101L21.4067 12.0129C21.0687 12.0147 21.0686 12.0147 21.0668 11.6587L21.0497 8.36525C21.0483 8.08004 21.0497 8.08003 20.7773 8.08144L17.7819 8.09695L17.7818 8.09695C17.1996 8.09997 17.1992 8.09997 17.1973 7.66079L17.1951 7.22161C17.1928 6.78826 17.1928 6.78842 17.7797 6.78538Z" fill="#787676"/>
</svg>
