<svg width="69" height="188" viewBox="0 0 69 188" fill="none" xmlns="http://www.w3.org/2000/svg">
<rect width="69" height="188" fill="white"/>
<rect x="23" y="144.091" width="28.063" height="20.9091" rx="3" stroke="#C6C6C6" stroke-width="2"/>
<path d="M36.2096 133.045C29.4941 133.045 30.4881 140.618 30.3805 144.182H26.1753C26.3372 139.553 25.6895 130 36.2096 130C47.0524 130 46.8101 139.356 47.0524 144.182H42.9252C42.4123 140.321 42.9252 133.045 36.2096 133.045Z" stroke="#C6C6C6" stroke-width="2"/>
<ellipse cx="37.0315" cy="153.068" rx="3.34034" ry="3.06818" fill="#C6C6C6"/>
<rect x="35.5132" y="153.682" width="3.03667" height="6.13636" rx="1.51833" fill="#C6C6C6"/>
<path d="M46.3067 30.761C46.3067 36.0972 41.7005 40.522 35.8927 40.522C30.0849 40.522 25.4788 36.0972 25.4788 30.761C25.4788 25.4248 30.0849 21 35.8927 21C41.7005 21 46.3067 25.4248 46.3067 30.761Z" stroke="#C6C6C6" stroke-width="2"/>
<path d="M19.0001 55.5213C20.1936 46.5469 28.1526 40.4897 37.0596 40.6103C47.0062 41.2587 53.9795 47.518 54.3662 56" stroke="#C6C6C6" stroke-width="2" stroke-linecap="round" stroke-linejoin="round"/>
<rect x="22" y="82" width="28" height="23" rx="2" stroke="#C6C6C6" stroke-width="2"/>
<path d="M21.7896 88.5757L36.187 98.4242L50.2106 88.5757" stroke="#C6C6C6" stroke-width="2"/>
</svg>
