<svg width="32" height="25" viewBox="0 0 32 25" fill="none" xmlns="http://www.w3.org/2000/svg">
<rect x="1" y="1" width="30" height="23" rx="2" stroke="#787676" stroke-width="2"/>
<line x1="16" y1="10" x2="27" y2="10" stroke="#787676" stroke-width="2" stroke-linecap="round"/>
<line x1="20" y1="18" x2="27" y2="18" stroke="#787676" stroke-width="2" stroke-linecap="round"/>
<line x1="27" y1="14" x2="18" y2="14" stroke="#787676" stroke-width="2" stroke-linecap="round"/>
<line x1="27" y1="6" x2="16" y2="6" stroke="#787676" stroke-width="2" stroke-linecap="round"/>
<path d="M5.55139 4.3488L6.31912 4.35119M6.31912 4.35119L9.00671 4.35958C9.77456 4.36197 9.76918 4.33859 9.96926 5.20805L10.4624 7.35083C10.5471 7.63623 10.6077 8.25013 10.172 8.42251L9.46031 8.70414C8.58827 9.04922 7.24363 9.35256 7.5764 10.1935L9.35689 14.6931C9.74066 15.6629 10.9521 16.2837 11.6968 15.4968L12.9461 13.9824C13.501 13.3525 14.0949 13.1332 14.5704 13.6884L16.2142 15.4601C16.855 16.211 16.9133 16.3065 16.7106 17.0655C16.6565 17.2167 16.5959 17.3604 16.5295 17.4971C15.3251 19.9758 13.1226 20.3707 10.6004 19.8274C5.90336 17.7249 3.66319 11.2724 4.04378 6.82347C4.26085 4.28612 4.63415 4.34594 6.31912 4.35119Z" stroke="#787676"/>
</svg>
