<svg width="32" height="25" viewBox="0 0 32 25" fill="none" xmlns="http://www.w3.org/2000/svg">
<path d="M17.34 2.53333C16 0.488889 16 0.488889 14.66 2.53333L1.92989 21.9556C0.589875 24 0.589875 24 2.64456 24H29.3554C31.4101 24 31.4101 24 30.0701 21.9556L17.34 2.53333Z" stroke="#787676"/>
<path d="M14.9038 7.00007H15.9829H17.062C18.1412 7.0001 18.1495 6.95936 17.7804 8.7589L16.394 15.5176C16.0039 17.4197 15.9829 17.5218 15.5891 15.6474L14.133 8.50317C13.8247 7.00007 14.0405 7.00007 14.9038 7.00007Z" fill="#787676"/>
<path d="M14.133 8.50317C13.8247 7.00007 14.0405 7.00007 14.9038 7.00007H15.9829H17.062C18.1412 7.0001 18.1495 6.95936 17.7804 8.7589L16.394 15.5176C16.0039 17.4197 15.9829 17.5218 15.5891 15.6474M14.133 8.50317L15.5719 15.5176C15.5771 15.5602 15.5829 15.6036 15.5891 15.6474M14.133 8.50317L15.5891 15.6474" stroke="#787676"/>
<circle cx="16" cy="20" r="1.5" fill="#787676" stroke="#787676"/>
</svg>
