<svg width="172" height="185" viewBox="0 0 172 185" fill="none" xmlns="http://www.w3.org/2000/svg">
<path d="M63.1663 29.4302H23.9007V142.607C23.9007 179.701 23.9007 180 39.6923 180H128.04C145.538 180 145.538 180 145.538 142.607V29.4302H104.352H63.1663Z" fill="#F1F2F7"/>
<path d="M0 29.4302H23.9007M172 29.4302H145.538M23.9007 29.4302H63.1663H104.352H145.538M23.9007 29.4302V142.607C23.9007 179.701 23.9007 180 39.6923 180H128.04C145.538 180 145.538 180 145.538 142.607C145.538 105.214 145.538 29.4302 145.538 29.4302" stroke="#F1F2F7" stroke-width="10"/>
<path d="M58.5 29V5.5H104.5V29" stroke="#F1F2F7" stroke-width="10"/>
<path d="M34 160.5V43.5H59V160.5H34Z" fill="#FB8D0B"/>
<path d="M70 160V43H95V160H70Z" fill="#FB8D0B"/>
<path d="M105 160V43H130V160H105Z" fill="#FB8D0B"/>
</svg>
