<svg width="41" height="43" viewBox="0 0 41 43" fill="none" xmlns="http://www.w3.org/2000/svg">
<path d="M16.6132 36.2118C16.6132 39.6354 16.6132 41.0049 12.7068 41.0049C6.04294 41.0049 6.5025 40.0919 6.50247 35.527V23.4301C6.50247 20.4629 6.50246 20.4629 3.51516 20.4629C-0.77767 20.4629 0.920029 18.1807 4.89389 14.3005C4.89389 14.3005 17.3026 1.74707 20.0601 1.74707C22.8176 1.74707 29.2486 8.08069 37.524 15.4417C40.09 17.7241 41.2926 20.4629 37.9837 20.4629C34.6747 20.4629 34.422 20.0066 34.422 23.4301V29.4786L34.5369 35.527C34.5369 39.8637 34.9964 41.0049 29.9411 41.0049C24.6559 41.0049 24.6559 39.6354 24.6559 36.2118C24.6559 28.6797 26.023 27.6248 20.0601 27.995C16.3834 28.2232 16.6132 29.5927 16.6132 36.2118Z" fill="white" stroke="#FB8D0B" stroke-width="2"/>
</svg>
