<svg width="22" height="22" viewBox="0 0 22 22" fill="none" xmlns="http://www.w3.org/2000/svg">
<path d="M16.2586 6.85304L16.2214 6.89233L12.729 10.5742C12.4522 10.8661 12.4546 10.8684 12.729 11.1286L16.8104 15C17.3 15.4643 17.2922 15.4725 16.8499 15.9388L16.2279 16.5946C15.8077 17.0376 15.8029 17.0427 15.2536 16.5217L11.3706 12.8386C10.9577 12.4469 10.9551 12.4444 10.5812 12.8386L7.10825 16.5C6.46373 17.1795 6.46348 17.1793 6 16.7396L5.27626 16.0532C4.84755 15.6465 4.84779 15.6467 5.46125 15L8.98434 11.2857L9 11.2692C9.33913 10.9117 9.33498 10.9077 9 10.59L4.95451 6.75276C4.49133 6.31342 4.48382 6.32134 4.95451 5.82511L5.5939 5.15102C5.98832 4.73519 5.98844 4.73507 6.42697 5.15102L10.4848 9C10.8362 9.33332 10.8346 9.33506 11.1524 9L14.648 5.31471L14.6482 5.3145C15.3276 4.59825 15.328 4.59779 15.8687 5.1115L16.4098 5.62476C16.9437 6.13119 16.9435 6.131 16.2586 6.85304Z" fill="white"/>
</svg>
