<svg width="33" height="33" viewBox="0 0 33 33" fill="none" xmlns="http://www.w3.org/2000/svg">
<mask id="path-1-inside-1" fill="white">
<path d="M28.1455 21.0423C27.2471 23.3456 25.6859 25.3307 23.6593 26.7467C21.6327 28.1627 19.2317 28.9459 16.76 28.9973C14.2882 29.0487 11.8567 28.366 9.77301 27.0356C7.68928 25.7051 6.04687 23.7866 5.05348 21.5227C4.06009 19.2588 3.76033 16.7511 4.19211 14.3169C4.6239 11.8826 5.76783 9.63104 7.47925 7.84691C9.19067 6.06277 11.3927 4.8262 13.8069 4.29356C16.2211 3.76092 18.7391 3.95614 21.0423 4.85453L16.5 16.5L28.1455 21.0423Z"/>
</mask>
<path d="M28.1455 21.0423C27.2471 23.3456 25.6859 25.3307 23.6593 26.7467C21.6327 28.1627 19.2317 28.9459 16.76 28.9973C14.2882 29.0487 11.8567 28.366 9.77301 27.0356C7.68928 25.7051 6.04687 23.7866 5.05348 21.5227C4.06009 19.2588 3.76033 16.7511 4.19211 14.3169C4.6239 11.8826 5.76783 9.63104 7.47925 7.84691C9.19067 6.06277 11.3927 4.8262 13.8069 4.29356C16.2211 3.76092 18.7391 3.95614 21.0423 4.85453L16.5 16.5L28.1455 21.0423Z" stroke="url(#paint0_diamond)" stroke-width="4" mask="url(#path-1-inside-1)"/>
<defs>
<radialGradient id="paint0_diamond" cx="0" cy="0" r="1" gradientUnits="userSpaceOnUse" gradientTransform="translate(-5.74347 21.2411) rotate(-9.91006) scale(19.2938 102.449)">
<stop offset="0.973858" stop-color="#FF6B00"/>
<stop offset="0.973958" stop-opacity="0"/>
<stop offset="0.9999" stop-opacity="0"/>
</radialGradient>
</defs>
</svg>
